<svg xmlns="http://www.w3.org/2000/svg" width="23" height="23" viewBox="0 0 23 23"><g><g><g><path fill="#353b56" d="M1.456 0h2.62c.804 0 1.456.652 1.456 1.456v2.62c0 .804-.652 1.456-1.456 1.456h-2.62A1.456 1.456 0 0 1 0 4.076v-2.62C0 .652.652 0 1.456 0z"/></g><g><path fill="#353b56" d="M10.19 0h2.62c.804 0 1.456.652 1.456 1.456v2.62c0 .804-.652 1.456-1.456 1.456h-2.62a1.456 1.456 0 0 1-1.456-1.456v-2.62C8.734.652 9.386 0 10.19 0z"/></g><g><path fill="#353b56" d="M18.924 0h2.62C22.348 0 23 .652 23 1.456v2.62c0 .804-.652 1.456-1.456 1.456h-2.62a1.456 1.456 0 0 1-1.456-1.456v-2.62C17.468.652 18.12 0 18.924 0z"/></g><g><path fill="#353b56" d="M1.456 8.734h2.62c.804 0 1.456.652 1.456 1.456v2.62c0 .804-.652 1.456-1.456 1.456h-2.62A1.456 1.456 0 0 1 0 12.81v-2.62c0-.804.652-1.456 1.456-1.456z"/></g><g><path fill="#5a89ff" d="M10.19 8.734h2.62c.804 0 1.456.652 1.456 1.456v2.62c0 .804-.652 1.456-1.456 1.456h-2.62a1.456 1.456 0 0 1-1.456-1.456v-2.62c0-.804.652-1.456 1.456-1.456z"/></g><g><path fill="#353b56" d="M18.924 8.734h2.62c.804 0 1.456.652 1.456 1.456v2.62c0 .804-.652 1.456-1.456 1.456h-2.62a1.456 1.456 0 0 1-1.456-1.456v-2.62c0-.804.652-1.456 1.456-1.456z"/></g><g><path fill="#353b56" d="M1.456 17.468h2.62c.804 0 1.456.652 1.456 1.456v2.62c0 .804-.652 1.456-1.456 1.456h-2.62A1.456 1.456 0 0 1 0 21.544v-2.62c0-.804.652-1.456 1.456-1.456z"/></g><g><path fill="#353b56" d="M10.19 17.468h2.62c.804 0 1.456.652 1.456 1.456v2.62c0 .804-.652 1.456-1.456 1.456h-2.62a1.456 1.456 0 0 1-1.456-1.456v-2.62c0-.804.652-1.456 1.456-1.456z"/></g><g><path fill="#353b56" d="M18.924 17.468h2.62c.804 0 1.456.652 1.456 1.456v2.62c0 .804-.652 1.456-1.456 1.456h-2.62a1.456 1.456 0 0 1-1.456-1.456v-2.62c0-.804.652-1.456 1.456-1.456z"/></g></g></g></svg>